<?xml version="1.0" encoding="UTF-8"?>
<svg version="1.1" xmlns="http://www.w3.org/2000/svg" width="333" height="268">
<path d="M0 0 C109.89 0 219.78 0 333 0 C333 88.44 333 176.88 333 268 C223.11 268 113.22 268 0 268 C0 179.56 0 91.12 0 0 Z " fill="#000000" transform="translate(0,0)"/>
<path d="M0 0 C0.90685547 0.03287109 1.81371094 0.06574219 2.74804688 0.09960938 C6.66168692 0.28975722 10.04817981 0.69541164 13.81933594 1.82958984 C17.47694694 2.82321615 20.54482081 3.08068227 24.32421875 3.12109375 C26.2259082 3.15879883 26.2259082 3.15879883 28.16601562 3.19726562 C30.8170063 3.23257729 33.46805456 3.26379176 36.11914062 3.29101562 C37.38306641 3.31744141 38.64699219 3.34386719 39.94921875 3.37109375 C41.09865967 3.38454834 42.24810059 3.39800293 43.43237305 3.41186523 C46.70628875 3.84833413 48.10586976 4.51343834 50.4375 6.8125 C51.44338143 11.04195421 50.85310999 14.90571458 49.0625 18.8125 C47.4375 20.8125 47.4375 20.8125 45.4375 21.8125 C41.83872243 22.0537158 38.23096212 21.99769881 34.625 22 C33.12743164 22.01836914 33.12743164 22.01836914 31.59960938 22.03710938 C30.14844727 22.04000977 30.14844727 22.04000977 28.66796875 22.04296875 C27.78520264 22.04707764 26.90243652 22.05118652 25.99291992 22.05541992 C23.15879465 21.78600608 21.05545229 20.89758624 18.4375 19.8125 C15.66417616 19.62447805 13.01781609 19.53244227 10.25 19.5625 C9.52619141 19.55476563 8.80238281 19.54703125 8.05664062 19.5390625 C3.78399341 19.41593312 3.78399341 19.41593312 0.4375 21.8125 C0.01063577 24.63802559 0.01063577 24.63802559 -0.125 27.8125 C-0.46713215 33.62176431 -0.46713215 33.62176431 -1.5625 35.8125 C-1.71029962 37.7878988 -1.78368966 39.76928924 -1.8125 41.75 C-1.83828125 42.81089844 -1.8640625 43.87179688 -1.890625 44.96484375 C-1.78267241 47.73554785 -1.78267241 47.73554785 -0.50268555 49.46728516 C2.42180431 51.4949609 5.37655961 51.21405699 8.80859375 51.18359375 C10.28450753 51.20097545 11.76041894 51.21855984 13.23632812 51.23632812 C15.55806854 51.24640235 17.87965464 51.24999658 20.20141602 51.24829102 C22.4459417 51.25186396 24.68927964 51.27921433 26.93359375 51.30859375 C27.62537216 51.30041122 28.31715057 51.2922287 29.02989197 51.28379822 C32.36301546 51.33520402 34.18143022 51.62721661 36.91040039 53.60180664 C38.83835669 56.39279693 38.5763539 58.32491333 38.08984375 61.6171875 C37.22079267 64.54177856 35.85395452 67.11778165 34.4375 69.8125 C19.87451308 69.98518364 19.87451308 69.98518364 14.125 69.25 C10.62097305 68.49181421 10.62097305 68.49181421 8.4375 69.8125 C6.13721838 70.04424479 3.83869953 70.19359483 1.53125 70.3359375 C-0.9499209 70.64808965 -0.9499209 70.64808965 -2.5625 73.8125 C-2.92940593 76.04622603 -2.92940593 76.04622603 -2.9765625 78.546875 C-3.03420776 79.98123901 -3.03420776 79.98123901 -3.09301758 81.44458008 C-3.12419678 82.47349365 -3.15537598 83.50240723 -3.1875 84.5625 C-3.22834717 85.61912842 -3.26919434 86.67575684 -3.3112793 87.7644043 C-3.5043447 93.31884254 -3.57603755 98.85303842 -3.48046875 104.41015625 C-3.46483887 105.45397461 -3.44920898 106.49779297 -3.43310547 107.57324219 C-3.39493021 109.57824536 -3.3385183 111.58299998 -3.26220703 113.58691406 C-3.23489502 114.94574707 -3.23489502 114.94574707 -3.20703125 116.33203125 C-3.17971924 117.12714111 -3.15240723 117.92225098 -3.12426758 118.74145508 C-3.5625 120.8125 -3.5625 120.8125 -5.4050293 122.5612793 C-8.42029975 124.30997921 -10.12161265 124.36304198 -13.5625 123.8125 C-16.4853334 121.98149068 -18.99573854 119.94602292 -20.5625 116.8125 C-20.65750504 115.26093375 -20.69044633 113.70535042 -20.69189453 112.15087891 C-20.69504669 111.18292389 -20.69819885 110.21496887 -20.70144653 109.21768188 C-20.6994223 108.16873749 -20.69739807 107.11979309 -20.6953125 106.0390625 C-20.69626923 104.96377289 -20.69722595 103.88848328 -20.69821167 102.78060913 C-20.69889315 100.50250185 -20.69704109 98.22439263 -20.69287109 95.94628906 C-20.68753282 92.45893988 -20.69281181 88.9717201 -20.69921875 85.484375 C-20.69855776 83.27343722 -20.69727616 81.06249951 -20.6953125 78.8515625 C-20.69733673 77.80666656 -20.69936096 76.76177063 -20.70144653 75.68521118 C-20.69829437 74.71095184 -20.69514221 73.7366925 -20.69189453 72.73291016 C-20.69109894 71.87734528 -20.69030334 71.0217804 -20.68948364 70.14028931 C-20.5625 67.8125 -20.5625 67.8125 -20.05931091 65.82078552 C-19.46149873 63.40421714 -19.45989412 61.24862785 -19.48413086 58.75952148 C-19.49000717 57.75424911 -19.49588348 56.74897675 -19.50193787 55.71324158 C-19.51032181 54.63095779 -19.51870575 53.54867401 -19.52734375 52.43359375 C-19.52362888 50.12694867 -19.51769805 47.8203063 -19.50976562 45.51367188 C-19.49923858 41.88820656 -19.4998439 38.26470386 -19.53833008 34.6394043 C-19.77633242 9.59436637 -19.77633242 9.59436637 -12.97143555 2.3894043 C-8.66848796 -0.42733214 -5.00658999 -0.46099223 0 0 Z " fill="#FAFAFA" transform="translate(67.5625,60.1875)"/>
<path d="M0 0 C4.36187222 3.34519524 6.60322002 6.7473732 7.34765625 12.21484375 C7.61707315 17.39757413 7.54096904 21.8959504 4.03125 25.93359375 C-5.14049281 33.59138286 -13.86275509 36.53552352 -25.74462891 36.42138672 C-30.00280958 36.22839453 -30.00280958 36.22839453 -33.75683594 37.90893555 C-35.388159 39.79349825 -35.388159 39.79349825 -34.87890625 43.4453125 C-33.91602936 48.92167481 -32.1330383 52.45235626 -28.25390625 56.5078125 C-19.59352835 62.19004357 -5.51079638 58.42838028 3.99609375 56.6328125 C8.88910528 63.4559393 8.88910528 63.4559393 9.24609375 67.3828125 C6.80985763 71.76803751 2.69232281 73.08908976 -1.85546875 74.546875 C-12.8417675 77.52291036 -21.49270483 77.35907213 -32.00390625 72.6328125 C-35.73454228 69.96879463 -38.87751758 66.97582361 -42.00390625 63.6328125 C-42.78894531 62.82263672 -42.78894531 62.82263672 -43.58984375 61.99609375 C-50.37049892 54.49627818 -51.7006195 47.32741189 -51.56640625 37.4453125 C-51.55762451 36.33486572 -51.54884277 35.22441895 -51.53979492 34.08032227 C-51.32941137 25.61471154 -50.16557614 19.10754362 -46.00390625 11.6328125 C-45.66617188 10.89675781 -45.3284375 10.16070312 -44.98046875 9.40234375 C-40.93104633 1.5318498 -32.32607836 -4.48426294 -24.12890625 -7.4296875 C-14.31879957 -10.3727195 -7.8882674 -5.38185885 0 0 Z " fill="#F9F9F9" transform="translate(178.00390625,105.3671875)"/>
<path d="M0 0 C3.46060587 0.93846939 4.35410459 1.35082543 6.8125 3.625 C9.37662148 6.30450575 9.37662148 6.30450575 12.08203125 5.80859375 C14.76242406 4.9767477 16.82553 3.83945876 19.25 2.4375 C24.86373776 -0.20425895 29.96101086 -0.52227525 36.0625 -0.5625 C36.93076416 -0.57676025 37.79902832 -0.59102051 38.69360352 -0.60571289 C42.81188466 -0.54140843 45.15356274 -0.31764165 48.75390625 1.82421875 C50.6875 4 50.6875 4 51.25 7.375 C50.60873 11.50762892 49.23842696 13.73162484 46.6875 17 C45.64529297 16.76603516 45.64529297 16.76603516 44.58203125 16.52734375 C38.64877609 15.44638633 31.94850401 14.54887999 26.30859375 17.05859375 C24.22573961 18.56265085 22.4834118 20.16453067 20.6875 22 C20.06101563 22.556875 19.43453125 23.11375 18.7890625 23.6875 C10.21807313 32.07766681 9.32505901 44.09606809 9.14657593 55.45806885 C9.12682782 57.84719023 9.12330416 60.23580324 9.125 62.625 C9.12138028 65.05793186 9.11183852 67.49015914 9.08424377 69.92294312 C9.06756432 71.42091929 9.06449371 72.9191301 9.07725525 74.41714478 C9.0452298 77.55882445 8.85912618 79.69628172 7.29907227 82.45703125 C5.6875 84 5.6875 84 3.53125 84.4609375 C2.7578125 84.43257813 1.984375 84.40421875 1.1875 84.375 C0.4140625 84.36210937 -0.359375 84.34921875 -1.15625 84.3359375 C-3.3125 84 -3.3125 84 -6.3125 82 C-6.83666992 79.62084961 -6.83666992 79.62084961 -7.04296875 76.65234375 C-7.12353516 75.57146484 -7.20410156 74.49058594 -7.28710938 73.37695312 C-7.35736328 72.24193359 -7.42761719 71.10691406 -7.5 69.9375 C-7.58185547 68.82955078 -7.66371094 67.72160156 -7.74804688 66.58007812 C-8.92604446 49.84063339 -8.92604446 49.84063339 -7.3125 45 C-7.21404056 43.61969571 -7.16709107 42.23531925 -7.15478516 40.8515625 C-7.14452301 40.02060059 -7.13426086 39.18963867 -7.12368774 38.33349609 C-7.11638641 37.43969238 -7.10908508 36.54588867 -7.1015625 35.625 C-7.07350487 33.73436618 -7.04484048 31.84374128 -7.015625 29.953125 C-6.97428452 26.97070461 -6.93739831 23.98845288 -6.91113281 21.00585938 C-6.88359427 18.12855648 -6.83773636 15.25201241 -6.7890625 12.375 C-6.78580963 11.48119629 -6.78255676 10.58739258 -6.77920532 9.66650391 C-6.76263885 8.83554199 -6.74607239 8.00458008 -6.72900391 7.1484375 C-6.72091705 6.41802246 -6.7128302 5.68760742 -6.70449829 4.93505859 C-5.87958017 0.86293653 -3.97033924 0 0 0 Z " fill="#F8F8F8" transform="translate(209.3125,104)"/>
<path d="M0 0 C1.64574566 -0.02688151 3.29161413 -0.04634123 4.9375 -0.0625 C5.85402344 -0.07410156 6.77054687 -0.08570312 7.71484375 -0.09765625 C10 0 10 0 11 1 C11.07617395 3.48593697 11.0907862 5.9443125 11.0625 8.4296875 C11.05871338 9.17582306 11.05492676 9.92195862 11.05102539 10.69070435 C11.03462231 13.89461849 11.00656144 17.09840713 10.97949219 20.30224609 C10.96142387 22.63638725 10.94931561 24.97050767 10.9375 27.3046875 C10.92920166 28.02977509 10.92090332 28.75486267 10.91235352 29.50192261 C10.89714645 32.61978746 11.00571755 35.01715266 12 38 C12.27363443 42.53817504 12.31325762 47.07827105 12.35009766 51.62353516 C12.36666136 53.12108903 12.39395771 54.61856371 12.43212891 56.11572266 C12.48704638 58.28329128 12.50878833 60.44901594 12.5234375 62.6171875 C12.54325684 63.91253418 12.56307617 65.20788086 12.58349609 66.54248047 C12 70 12 70 9.96728516 72.96142578 C5.96291436 75.71249507 3.7717656 75.40438692 -1 75 C-4.1214557 63.17721988 -5.64681612 52.08788457 -5.52148438 39.85839844 C-5.49994081 37.36815824 -5.52148517 34.88078181 -5.546875 32.390625 C-5.56395517 21.55779126 -4.94375322 9.88750644 0 0 Z " fill="#F9F9F9" transform="translate(276,106)"/>
<path d="M0 0 C3.36431666 2.43376099 4.72543264 3.98621281 5.8125 8 C4.89774922 11.37754133 4.4019218 11.83488152 1.625 13.75 C-4.52927533 17.14960858 -11.03862844 18.13601259 -18 18 C-17.68963546 11.9478915 -14.72988791 7.58592776 -11 3 C-7.30801923 -0.23411702 -4.93399035 -0.69248987 0 0 Z " fill="#050505" transform="translate(163,110)"/>
<path d="M0 0 C0.90105469 0.02707031 1.80210937 0.05414063 2.73046875 0.08203125 C3.76107422 0.13423828 3.76107422 0.13423828 4.8125 0.1875 C6.97804536 4.10818495 7.8113201 7.7629022 6.8125 12.1875 C3.88424172 15.53408089 1.99682631 16.95527916 -2.375 17.8125 C-5.1875 17.1875 -5.1875 17.1875 -7.0625 15.25 C-8.53144875 11.25119508 -8.99231836 7.40096084 -8.1875 3.1875 C-5.91814862 -0.14630284 -3.87162703 -0.15084261 0 0 Z " fill="#F6F6F6" transform="translate(282.1875,76.8125)"/>
</svg>
